<svg id="Capa_1" data-name="Capa 1" xmlns="http://www.w3.org/2000/svg" viewBox="0 0 32 32"><defs><style>.cls-1{fill:#fff;}</style></defs><path class="cls-1" d="M28.87,8.06A5.61,5.61,0,0,0,27,4.67a4.43,4.43,0,0,0-3.35-1,3.09,3.09,0,0,0-1,.34.89.89,0,0,0-.4-.12l-10-.36-.92,0a14.82,14.82,0,0,0-3.52.1A4.21,4.21,0,0,0,4.71,6a12.06,12.06,0,0,0-.84,3.63l0,.35c-.21,1.62-.38,3.26-.51,4.88S3.09,18.12,3,19.74v.19C3,21.48,2.9,23.08,3,24.66a2.69,2.69,0,0,0,.79,2,5.72,5.72,0,0,0,1.87,1,14.63,14.63,0,0,0,4.32.86c.55,0,1.1,0,1.64,0,1,0,1.92,0,2.9-.1,1.64-.08,3.28-.18,4.89-.31l.71-.06c1.22-.09,2.48-.19,3.71-.4a6.64,6.64,0,0,0,3.35-1.41,5.3,5.3,0,0,0,1.46-3.91c.06-1.11.1-2.21.14-3.32L29,12.19A18.5,18.5,0,0,0,28.87,8.06Zm-1.42,3.48c0,1-.08,2.05-.13,3.07l-.25,6.13c0,.25,0,.5,0,.76a6.14,6.14,0,0,1-.53,3.06A3.61,3.61,0,0,1,24.12,26a20.76,20.76,0,0,1-3,.41l-.61.05c-2.82.25-5.82.49-8.77.5a17.32,17.32,0,0,1-4-.36,10.09,10.09,0,0,1-1.83-.56l-.09,0c-.42-.18-1-.4-1.12-.78a3.47,3.47,0,0,1-.12-1.42c0-.16,0-.32,0-.47,0-.77,0-1.53,0-2.3,0-1.47.11-3,.2-4.44S5,13.55,5.18,12l.07-.63A30.45,30.45,0,0,1,5.74,8,3.38,3.38,0,0,1,7.27,5.43,4.28,4.28,0,0,1,9.33,5l1,0L22,5.48l.05.06a.81.81,0,0,0,1.11,0,2.15,2.15,0,0,1,2.24,0,3.51,3.51,0,0,1,1.8,2.25A11.38,11.38,0,0,1,27.45,11.54Z"/><path class="cls-1" d="M18.94,13.12a.89.89,0,0,0-.05-.46.79.79,0,0,0-.5-.44,8.46,8.46,0,0,0-3.8-.09l-.17,0a10.21,10.21,0,0,0-3.16.85c-2.09,1.1-2.51,3.79-1.84,5.88a4.54,4.54,0,0,0,2,2.61,7.59,7.59,0,0,0,3.61.89h.09a6.19,6.19,0,0,0,5.1-3,5.33,5.33,0,0,0,.67-3.78A3.62,3.62,0,0,0,18.94,13.12Zm0,5.28a4.57,4.57,0,0,1-3.43,2.37,6.44,6.44,0,0,1-2.83-.43,2.84,2.84,0,0,1-1.61-1.58c-.61-1.44-.48-3.48.8-4.25a6.85,6.85,0,0,1,2.5-.73l.34-.06a10.71,10.71,0,0,1,1.75-.17,5.15,5.15,0,0,1,.95.08.74.74,0,0,0,.57.83,1.71,1.71,0,0,1,1.19,1A3.65,3.65,0,0,1,18.93,18.4Z"/><path class="cls-1" d="M23.88,7.74a1.05,1.05,0,0,0-.24-.06,2.28,2.28,0,0,0-2.55,1.64A2,2,0,0,0,21.5,11a1.75,1.75,0,0,0,1.36.66h0a2.56,2.56,0,0,0,1.77-.81,2.07,2.07,0,0,0,.62-1.47A1.78,1.78,0,0,0,23.88,7.74Zm-.24,1.8h0c-.11.27-.6.6-.84.51a.26.26,0,0,1-.13-.15.42.42,0,0,1,0-.33.47.47,0,0,1,.24-.22.65.65,0,0,0,.67-.07A.34.34,0,0,1,23.64,9.54Z"/></svg>