<svg id="Capa_1" data-name="Capa 1" xmlns="http://www.w3.org/2000/svg" viewBox="0 0 32 32"><defs><style>.cls-1{fill:#1d1d1b;}</style></defs><path class="cls-1" d="M29.54,23.54a31.44,31.44,0,0,0-.82-4.8A36.67,36.67,0,0,1,28,15c-.09-.75-.13-1.53-.16-2.28s-.07-1.51-.16-2.27a9.21,9.21,0,0,0-.47-2.31,2.14,2.14,0,0,0-1.89-1.37,12.2,12.2,0,0,0-1.71,0h0a2.74,2.74,0,0,0-.05-.28,4.79,4.79,0,0,0-1.29-2.59A10.67,10.67,0,0,0,20,2.46l-.14-.08C17.84,1.29,16,1.05,14.54,1.66c-1.77.72-2.69,2.53-3.3,4-.23.57-.43,1.13-.6,1.69-.94,0-1.82-.11-2.66-.22a20.53,20.53,0,0,1-2-.37,1,1,0,0,0-.56,0A1,1,0,0,0,4.66,7a.94.94,0,0,0-.41.67c-.44,3.27-.83,6.54-1.16,9.75-.17,1.65-.33,3.3-.47,4.95L2.56,23a13.58,13.58,0,0,0,0,3.49A4.15,4.15,0,0,0,4.9,29.68a9.71,9.71,0,0,0,3.81.57h.2c1.7,0,3.42-.06,5.08-.15,1.25-.06,2.5-.12,3.76-.14a29.74,29.74,0,0,1,4.3.19c.42.05.85.14,1.28.22a10.7,10.7,0,0,0,2.19.3,4.36,4.36,0,0,0,.51,0A3.14,3.14,0,0,0,28,29.78,4.83,4.83,0,0,0,29,27.88,10.77,10.77,0,0,0,29.54,23.54ZM24,28.28a25.7,25.7,0,0,0-4.17-.46c-.45,0-.9,0-1.35,0-1.51,0-3,.07-4.49.15-.85,0-1.7.09-2.55.11a36.66,36.66,0,0,1-4.08,0,3.13,3.13,0,0,1-2.5-1,4.73,4.73,0,0,1-.36-2.84c.11-1.5.26-3,.4-4.52.3-3.14.65-6.27,1-9.29,0-.45.11-.9.17-1.35a27.78,27.78,0,0,0,4.07.5c-.06.31-.1.64-.14,1a1.91,1.91,0,0,0,0,.28,2.67,2.67,0,0,1,0,.48,1,1,0,0,0-.41.85,1.18,1.18,0,0,0,.52,1,.88.88,0,0,0,1,0,2.4,2.4,0,0,0,.92-2c0-.12,0-.24,0-.36a10.32,10.32,0,0,1,.18-1.09c2.16,0,4.34-.17,6.46-.33,1.08-.08,2.15-.17,3.22-.23a10.81,10.81,0,0,1-.42,3,1.09,1.09,0,0,0,.2,1,1,1,0,0,0,1,.32,1,1,0,0,0,.72-.72,12.64,12.64,0,0,0,.49-3.72h1.27a.82.82,0,0,1,.28,0,2.24,2.24,0,0,1,.14.49l0,.15c.07.35.13.7.17,1.06.07.69.11,1.4.14,2.17a30.73,30.73,0,0,0,.47,4.28c.14.71.3,1.42.46,2.12s.29,1.3.42,1.95a16,16,0,0,1,.37,3.79h0a8.06,8.06,0,0,1-.27,1.78,3.76,3.76,0,0,1-.65,1.44c-.52.57-1.56.36-2.4.18ZM18.11,3.88A14.89,14.89,0,0,1,20.24,5,2.29,2.29,0,0,1,21.45,6.4c.05.15.09.3.13.45l-.58,0c-.84.05-1.67.12-2.51.18l-1.93.15c-1.07.07-2.42.16-3.82.18a14.66,14.66,0,0,1,.67-1.63,5.45,5.45,0,0,1,1-1.58C15.57,3.09,17.23,3.53,18.11,3.88Z"/></svg>