<svg id="Capa_1" data-name="Capa 1" xmlns="http://www.w3.org/2000/svg" viewBox="0 0 32 32"><defs><style>.cls-1{fill:#e14d26;}</style></defs><path class="cls-1" d="M31,8.7a9.85,9.85,0,0,0-1.21-.2,9,9,0,0,1,.94-.45c.68-.26.43-1.31-.3-1.1a20.73,20.73,0,0,1-3.76.68A2.92,2.92,0,0,0,25.1,5.46a4.8,4.8,0,0,0-3.53-.33,6.65,6.65,0,0,0-4.4,5.06.45.45,0,0,0-.13.11,7.56,7.56,0,0,1-3.52-.39C12.27,9.51,11,9,9.81,8.55A24.91,24.91,0,0,1,6.35,6.9a15.64,15.64,0,0,1-1.53-1c-.49-.38-.93-.83-1.44-1.19a2,2,0,0,0-1.8-.38A1.64,1.64,0,0,0,.6,6a.62.62,0,0,0,.05.25,5.84,5.84,0,0,0,1,4,.54.54,0,0,0-.3.36,5.63,5.63,0,0,0,1.07,4.27c.54.86,1.12,1.71,1.73,2.53-.45-.09-.9-.16-1.36-.21s-.68.51-.49.86A12.63,12.63,0,0,0,7.7,23.37c-1.49.85-2.94,1.75-4.37,2.71a.57.57,0,0,0-.21.7.57.57,0,0,0,.36,1l8.17-.53a22,22,0,0,0,7.22-1.37,14.83,14.83,0,0,0,7.7-8.45,15.64,15.64,0,0,0,1-6.21,7.74,7.74,0,0,0,3.58-1.47A.58.58,0,0,0,31,8.7Zm-4.61,2.16A14.78,14.78,0,0,1,23.12,21.2a12.93,12.93,0,0,1-4.25,3.42,17.54,17.54,0,0,1-6.59,1.44c-2.53.18-5.06.33-7.59.49,1.45-.94,2.94-1.84,4.45-2.68a.57.57,0,0,0-.42-1.05.49.49,0,0,0-.28-.36,11.56,11.56,0,0,1-4.52-4,14.27,14.27,0,0,1,1.55.43c.6.2.87-.56.56-1-.88-1.11-1.7-2.27-2.47-3.46a5.67,5.67,0,0,1-1.17-3.15l.61.06a.58.58,0,0,0,.4-1A4.63,4.63,0,0,1,1.78,6.29a.69.69,0,0,0,0-.38c0-1.3,1.59.22,2,.54a16.2,16.2,0,0,0,3,2A31.62,31.62,0,0,0,10,9.85c1.15.44,2.31.89,3.5,1.24a7.56,7.56,0,0,0,4.34.2.54.54,0,0,0,.4-.6,5.74,5.74,0,0,1,3.19-4.3,4,4,0,0,1,2.7-.12c.73.25,1.62,1,1.39,1.83a.57.57,0,0,0,.55.72c.53,0,1.05-.08,1.58-.14a.57.57,0,0,0,.42,1,9.57,9.57,0,0,1,1.07,0,6.68,6.68,0,0,1-1.92.53.66.66,0,0,0-.43.19A.49.49,0,0,0,26.39,10.86Z"/></svg>