<svg id="Capa_1" data-name="Capa 1" xmlns="http://www.w3.org/2000/svg" viewBox="0 0 32 32"><defs><style>.cls-1{fill:#fff;}</style></defs><path class="cls-1" d="M31.64,9a.75.75,0,0,0-.58-.58,3.12,3.12,0,0,0-.44-.09l.21-.09a.85.85,0,0,0,.5-1.08.76.76,0,0,0-1-.49,19.81,19.81,0,0,1-3.47.65,3.27,3.27,0,0,0-1.67-2.12,5,5,0,0,0-3.72-.35A6.79,6.79,0,0,0,17,10l0,0a7.45,7.45,0,0,1-3.33-.4c-1.17-.37-2.32-.81-3.68-1.35A24.11,24.11,0,0,1,6.48,6.69,15.2,15.2,0,0,1,5,5.68l-.58-.49a8.59,8.59,0,0,0-.87-.7,2.25,2.25,0,0,0-2-.42A1.89,1.89,0,0,0,.35,6a.92.92,0,0,0,0,.29,6.11,6.11,0,0,0,.93,3.92.78.78,0,0,0-.21.36A6,6,0,0,0,2.22,15c.41.66.86,1.33,1.37,2l-.76-.1a.7.7,0,0,0-.68.32.91.91,0,0,0-.07.9,13,13,0,0,0,5.11,5.24c-1.36.79-2.7,1.62-4,2.49a.81.81,0,0,0-.35.85.93.93,0,0,0-.09.87.71.71,0,0,0,.68.44H3.5l2.16-.14,6-.39A21.75,21.75,0,0,0,19,26.11a15,15,0,0,0,7.84-8.59,15.72,15.72,0,0,0,1-6.08A8,8,0,0,0,31.29,10,.93.93,0,0,0,31.64,9ZM22.93,21a12.82,12.82,0,0,1-4.17,3.36,17.57,17.57,0,0,1-6.49,1.41l-6,.4-.61,0c1.19-.75,2.41-1.47,3.63-2.15a.78.78,0,0,0,.36-1,.87.87,0,0,0-.73-.56.74.74,0,0,0-.34-.31A11.53,11.53,0,0,1,4.5,18.89c.3.08.6.16.89.26a.71.71,0,0,0,.86-.26.93.93,0,0,0,0-1.08c-.88-1.13-1.7-2.28-2.45-3.45a5.88,5.88,0,0,1-1.13-2.74l.33,0a.83.83,0,0,0,.59-1.42A4.35,4.35,0,0,1,2,6.33a1,1,0,0,0,0-.46c0-.17.06-.22.07-.23s.38,0,1.34.86l.16.14a16.93,16.93,0,0,0,3.05,2A33.73,33.73,0,0,0,9.9,10.08l.17.07c1.09.41,2.21.85,3.35,1.18a7.68,7.68,0,0,0,4.49.19.78.78,0,0,0,.57-.81c.22-1,.94-3.26,3-4.09A3.75,3.75,0,0,1,24,6.51c.62.21,1.41.82,1.23,1.52a.85.85,0,0,0,.16.75.79.79,0,0,0,.64.29c.38,0,.78-.05,1.18-.1a.86.86,0,0,0,.08.47.78.78,0,0,0,.33.36,4,4,0,0,1-.48.08,1,1,0,0,0-.53.22.74.74,0,0,0-.51.78A14.47,14.47,0,0,1,22.93,21Z"/></svg>