<svg id="Capa_1" data-name="Capa 1" xmlns="http://www.w3.org/2000/svg" viewBox="0 0 32 32"><defs><style>.cls-1{fill:#e14d26;}</style></defs><path class="cls-1" d="M28.62,8.11a5.35,5.35,0,0,0-1.8-3.25,4.2,4.2,0,0,0-3.17-.94,2.87,2.87,0,0,0-1.07.39.52.52,0,0,0-.38-.17l-10-.36a20,20,0,0,0-4.38,0A4,4,0,0,0,4.93,6.1,13.29,13.29,0,0,0,4.07,10c-.2,1.62-.37,3.24-.5,4.87s-.23,3.25-.29,4.88-.13,3.27-.07,4.9a2.45,2.45,0,0,0,.71,1.82,5.46,5.46,0,0,0,1.79,1,14.32,14.32,0,0,0,4.25.84,42.41,42.41,0,0,0,4.51,0c1.63-.09,3.26-.19,4.88-.32,1.46-.12,2.95-.21,4.4-.45A6.44,6.44,0,0,0,27,26.11a5,5,0,0,0,1.38-3.73c.08-1.64.14-3.27.2-4.91l.2-5A19,19,0,0,0,28.62,8.11Zm-.92,3.43c-.06,1.52-.13,3-.19,4.54l-.19,4.67c-.05,1.26.1,2.81-.58,3.94a3.88,3.88,0,0,1-2.56,1.57,25.37,25.37,0,0,1-3.68.47c-2.92.25-5.87.49-8.8.5a19.05,19.05,0,0,1-4.06-.36,11,11,0,0,1-1.87-.58c-.47-.2-1.13-.44-1.35-.95a5.32,5.32,0,0,1-.12-2c0-.77,0-1.54,0-2.3,0-1.49.11-3,.2-4.46s.24-3.06.4-4.58a40,40,0,0,1,.56-4.1,3.75,3.75,0,0,1,1.66-2.7,7.13,7.13,0,0,1,3.64-.39L20,5.15l2.14.08a.67.67,0,0,0,.09.14.57.57,0,0,0,.78,0,2.35,2.35,0,0,1,2.5-.08,3.75,3.75,0,0,1,1.93,2.4A11.89,11.89,0,0,1,27.7,11.54Z"/><path class="cls-1" d="M18.63,13.26a.55.55,0,0,0-.31-.8,8.07,8.07,0,0,0-3.69-.08,10.21,10.21,0,0,0-3.26.86c-2,1-2.34,3.61-1.71,5.58a4.22,4.22,0,0,0,1.88,2.46,7.38,7.38,0,0,0,3.57.86A5.9,5.9,0,0,0,20,19.25a5,5,0,0,0,.64-3.59A3.32,3.32,0,0,0,18.63,13.26Zm.52,5.26A4.81,4.81,0,0,1,15.52,21a6.52,6.52,0,0,1-2.93-.45,3,3,0,0,1-1.76-1.71c-.61-1.44-.58-3.67.9-4.57a8.2,8.2,0,0,1,2.93-.81,7.69,7.69,0,0,1,3.06,0,.52.52,0,0,0,.32.78C19.92,14.7,19.9,17.12,19.15,18.52Z"/><path class="cls-1" d="M23.81,8l-.2-.05a2,2,0,0,0-2.28,1.44,1.66,1.66,0,0,0,1.55,2,2.19,2.19,0,0,0,2.14-2A1.54,1.54,0,0,0,23.81,8Zm.06,1.66c-.15.35-.76.8-1.16.64a.62.62,0,0,1-.25-.83.86.86,0,0,1,.48-.38.5.5,0,0,0,.55,0C23.8,8.89,24,9.41,23.87,9.64Z"/></svg>